<svg xmlns="http://www.w3.org/2000/svg" viewBox="0 0 200 120" fill="none">
  <!-- Hand-drawn style toffee pieces with almonds -->

  <!-- Toffee piece 1 - irregular rectangle -->
  <path d="M30 45 Q32 42 45 43 L68 44 Q72 45 73 48 L74 68 Q73 73 70 74 L48 76 Q35 77 32 74 L29 55 Q28 48 30 45Z"
        fill="#C4956A" stroke="#8B6914" stroke-width="1.5" stroke-linecap="round"/>
  <!-- Chocolate drizzle on piece 1 -->
  <path d="M35 50 Q45 48 55 52 Q62 55 68 51" stroke="#5C3317" stroke-width="2" stroke-linecap="round" fill="none"/>
  <path d="M38 60 Q50 63 60 58 Q66 56 70 60" stroke="#5C3317" stroke-width="1.5" stroke-linecap="round" fill="none"/>
  <!-- Almond bits -->
  <ellipse cx="42" cy="55" rx="4" ry="2.5" fill="#D4A574" stroke="#A67C52" stroke-width="0.8" transform="rotate(-15 42 55)"/>
  <ellipse cx="58" cy="65" rx="3.5" ry="2" fill="#D4A574" stroke="#A67C52" stroke-width="0.8" transform="rotate(20 58 65)"/>

  <!-- Toffee piece 2 - triangle-ish -->
  <path d="M85 50 Q88 46 100 44 L125 48 Q130 50 128 58 L118 75 Q115 80 108 78 L90 72 Q84 68 85 60Z"
        fill="#D4A574" stroke="#8B6914" stroke-width="1.5" stroke-linecap="round"/>
  <!-- Chocolate drizzle -->
  <path d="M92 54 Q102 52 112 56 Q120 59 125 55" stroke="#5C3317" stroke-width="2" stroke-linecap="round" fill="none"/>
  <path d="M95 65 Q105 68 115 64" stroke="#5C3317" stroke-width="1.5" stroke-linecap="round" fill="none"/>
  <!-- Almond bits -->
  <ellipse cx="100" cy="60" rx="4" ry="2.5" fill="#E8D5B0" stroke="#A67C52" stroke-width="0.8" transform="rotate(10 100 60)"/>
  <ellipse cx="115" cy="68" rx="3" ry="2" fill="#E8D5B0" stroke="#A67C52" stroke-width="0.8" transform="rotate(-25 115 68)"/>

  <!-- Toffee piece 3 - small chunk -->
  <path d="M140 55 Q143 50 155 52 L168 56 Q173 60 170 68 L162 78 Q158 82 150 80 L142 74 Q138 68 140 55Z"
        fill="#B8864E" stroke="#8B6914" stroke-width="1.5" stroke-linecap="round"/>
  <!-- Chocolate coating -->
  <path d="M145 58 Q155 55 165 60" stroke="#5C3317" stroke-width="2" stroke-linecap="round" fill="none"/>
  <path d="M148 68 Q156 72 162 67" stroke="#5C3317" stroke-width="1.5" stroke-linecap="round" fill="none"/>
  <!-- Almond -->
  <ellipse cx="155" cy="65" rx="4" ry="2.5" fill="#D4A574" stroke="#A67C52" stroke-width="0.8" transform="rotate(5 155 65)"/>

  <!-- Scattered almond pieces -->
  <ellipse cx="25" cy="85" rx="5" ry="3" fill="#D4A574" stroke="#A67C52" stroke-width="0.8" transform="rotate(-30 25 85)"/>
  <ellipse cx="78" cy="88" rx="4" ry="2.5" fill="#E8D5B0" stroke="#A67C52" stroke-width="0.8" transform="rotate(15 78 88)"/>
  <ellipse cx="135" cy="90" rx="4.5" ry="2.5" fill="#D4A574" stroke="#A67C52" stroke-width="0.8" transform="rotate(-10 135 90)"/>
  <ellipse cx="175" cy="85" rx="3.5" ry="2" fill="#E8D5B0" stroke="#A67C52" stroke-width="0.8" transform="rotate(25 175 85)"/>

  <!-- Small crumbs for hand-drawn feel -->
  <circle cx="50" cy="90" r="1.5" fill="#C4956A"/>
  <circle cx="95" cy="92" r="1" fill="#B8864E"/>
  <circle cx="155" cy="95" r="1.2" fill="#C4956A"/>
  <circle cx="120" cy="88" r="0.8" fill="#8B6914"/>
</svg>